<?xml version="1.0" encoding="UTF-8" standalone="no"?>
<!-- Created with Inkscape (http://www.inkscape.org/) -->

<svg
   version="1.1"
   id="svg1"
   width="759.97314"
   height="228.98334"
   viewBox="0 0 759.97314 228.98334"
   sodipodi:docname="logo.svg"
   xmlns:inkscape="http://www.inkscape.org/namespaces/inkscape"
   xmlns:sodipodi="http://sodipodi.sourceforge.net/DTD/sodipodi-0.dtd"
   xmlns="http://www.w3.org/2000/svg"
   xmlns:svg="http://www.w3.org/2000/svg">
  <sodipodi:namedview
     id="namedview1"
     pagecolor="#ffffff"
     bordercolor="#000000"
     borderopacity="0.25"
     inkscape:showpageshadow="2"
     inkscape:pageopacity="0.0"
     inkscape:pagecheckerboard="0"
     inkscape:deskcolor="#d1d1d1">
    <inkscape:page
       x="0"
       y="0"
       width="759.97314"
       height="228.98334"
       id="page2"
       margin="0"
       bleed="0" />
  </sodipodi:namedview>
  <defs
     id="defs1" />
  <g
     id="g1"
     transform="translate(-32.797367,-20.799261)">
    <g
       id="g306"
       transform="translate(-1.8468474,5.5405448)">
      <path
         id="path307"
         style="fill:#eb5230"
         d="m 90.644216,19.242044 v 28 28 h -28 -28 v 84.500006 84.5 h 84.499994 84.49999 v -28 -28 h 28 28 v -84.5 -84.500006 h -84.5 z m 108.499984,55.94531 2.25977,0.54883 2.25781,0.54687 -0.25781,55.730476 -0.25977,55.72852 -55.77734,0.25781 -55.777332,0.25781 -0.482421,-1.25781 -0.482422,-1.25781 0.259765,-55 0.259766,-55.000006 53.999984,-0.27735 z"
         inkscape:export-filename="C:\Users\a9160\Downloads\path307.svg"
         inkscape:export-xdpi="96"
         inkscape:export-ydpi="96" />
      <path
         style="fill:#232323"
         d="m 297.85616,242.73497 v -0.80695 l 5.38697,-15.44305 5.38696,-15.44306 5.36304,-0.28747 5.36303,-0.28747 5.32324,15.66424 5.32323,15.66424 -0.95141,0.95141 -0.95141,0.95141 -2.84,-0.32818 -2.83999,-0.32818 -0.92649,-3.25 -0.92649,-3.25 h -6.34192 -6.34192 l -1.46239,3.5 -1.46239,3.5 h -3.55103 -3.55103 z m 20,-13.01156 v -0.8185 l -1.53874,-5.1815 -1.53874,-5.1815 h -0.84254 -0.84255 l -1.32528,4.75 -1.32529,4.75 -0.36675,1.25 -0.36676,1.25 h 4.07333 4.07332 z m 70.36468,12.7828 -3.13532,-0.66479 -3.00094,-2.13686 -3.00094,-2.13686 -1.61374,-4.03313 -1.61374,-4.03313 v -3.32248 -3.32248 l 2.27493,-4.30195 2.27492,-4.30195 3.45948,-1.85533 3.45947,-1.85534 h 3.86447 3.86447 l 3.38537,1.60646 3.38537,1.60646 2.01576,3.26158 2.01576,3.26157 v 1.13196 1.13197 h -2.95454 -2.95455 l -2.5,-2.5 -2.5,-2.5 h -3.5065 -3.5065 l -2.02651,2.1752 -2.02651,2.17521 -0.60094,3.20331 -0.60095,3.20332 1.54134,2.98063 1.54135,2.98062 2.86328,1.18601 2.86329,1.18602 2.65249,-1.00848 2.65249,-1.00847 1.27193,-2.03669 1.27193,-2.03668 h 3.25945 3.25945 l -0.004,1.25 -0.004,1.25 -1.94275,3.18618 -1.94276,3.18618 -2.27998,1.22021 -2.27999,1.22021 -3.02352,0.65816 -3.02353,0.65816 z m 62.63532,0.26008 v -0.83827 l 5.38697,-15.44305 5.38696,-15.44306 5.36304,-0.28973 5.36303,-0.28972 5.29356,15.69616 5.29357,15.69617 -0.92174,0.92174 -0.92174,0.92174 -2.84,-0.32818 -2.83999,-0.32818 -0.92649,-3.25 -0.92649,-3.25 h -6.34192 -6.34192 l -1.37304,3.28616 -1.37305,3.28616 -3.64037,0.24517 -3.64038,0.24516 z m 20,-13.04288 v -0.8185 l -1.53874,-5.1815 -1.53874,-5.1815 h -0.80297 -0.80297 l -1.22205,4.25 -1.22205,4.25 -0.50362,1.75 -0.50363,1.75 h 4.06738 4.06739 z m 60,-2.6815 v -16.5 h 8.35212 8.35212 l 3.39788,2.25145 3.39788,2.25144 2.36178,4.76035 2.36177,4.76034 -0.68472,4.56608 -0.68473,4.56607 -3.43884,3.80639 -3.43884,3.80639 -4.43103,1.11575 -4.43103,1.11574 h -5.55718 -5.55718 z m 17.85,6.10305 2.35,-2.3485 v -3.75485 -3.75486 l -1.95062,-2.62242 -1.95063,-2.62242 -4.64937,-0.30479 -4.64938,-0.30479 v 8.97146 8.97145 l 1.25,0.5415 1.25,0.54149 3,-0.48238 3,-0.48238 z m 59.84945,9.76307 -0.69945,-0.69945 v -15.83334 -15.83333 h 11.06336 11.06336 l -0.31336,3.25 -0.31336,3.25 -7.25,0.29381 -7.25,0.29381 v 2.95619 2.95619 h 7.06336 7.06336 l -0.31336,3.25 -0.31336,3.25 -6.5,0.13587 -6.5,0.13587 -0.31336,3.11413 -0.31335,3.11413 h 7.62671 7.62672 l -0.31336,3.25 -0.31336,3.25 -10.05055,0.28278 -10.05055,0.28278 z m 71.76419,-0.23581 -0.46364,-0.46364 v -15.83334 -15.83333 l 5.75,0.011 5.75,0.011 2.92665,9.53918 2.92665,9.53918 0.75312,0.46545 0.75311,0.46545 3.28289,-10.01561 3.28288,-10.01561 h 5.81212 5.81213 l -0.27478,16.25 -0.27477,16.25 -3.25,0.31336 -3.25,0.31336 -0.0819,-3.81336 -0.0819,-3.81336 0.14855,-5.64979 0.14854,-5.6498 -0.95956,-0.59304 -0.95957,-0.59304 -3.35708,9.74283 -3.35708,9.74284 -2.30504,0.32676 -2.30504,0.32677 -1.2422,-1.03094 -1.2422,-1.03093 -2.89087,-9.04583 -2.89087,-9.04583 h -0.77568 -0.77567 l -0.28622,9.75 -0.28621,9.75 -2.78636,0.047 -2.78635,0.047 z m 96,0 -0.46364,-0.46364 v -4.86833 -4.86832 l -5.5,-10.29945 -5.5,-10.29944 v -0.66556 -0.66557 h 3.78537 3.78537 l 3.22978,6.54966 3.22978,6.54965 0.73485,-0.46014 0.73485,-0.46014 3,-6.07306 3,-6.07306 4.1306,-0.0165 4.13059,-0.0164 -5.53686,10.25 -5.53687,10.25 -0.59373,6 -0.59373,6 -2.78636,0.047 -2.78635,0.047 z m -272.02153,-54.50869 -8.0579,-1.32406 -6.84403,-2.21108 -6.84403,-2.21107 -6.09807,-3.07293 -6.09808,-3.07293 -5,-3.20574 -5,-3.20573 -6.08848,-5.97607 -6.08848,-5.97606 -4.02309,-5.93297 -4.02308,-5.93298 -2.62616,-5.19253 -2.62616,-5.19254 -2.66806,-8.80746 -2.66806,-8.80747 -0.024,-15.5 -0.024,-15.499999 2.68893,-8.796586 2.68893,-8.796585 3.09274,-6.203415 3.09273,-6.203414 5.4354,-7.160351 5.4354,-7.160351 5.40103,-4.614246 5.40103,-4.614246 6.43494,-3.909359 6.43493,-3.90936 6.15988,-2.592656 6.15988,-2.592656 8.7169,-2.179111 8.7169,-2.179111 15.5,0.02372 15.5,0.02372 8.71691,2.155387 8.7169,2.155386 5.91979,2.491603 5.91978,2.491603 6.23711,3.65547 6.23711,3.65547 7.50096,7.125177 7.50096,7.125176 4.3986,6.164087 4.3986,6.164087 3.35893,7.340276 3.35894,7.340276 1.84289,7 1.8429,7 -0.0586,14.999998 -0.0586,15 -2.67889,8.80747 -2.67889,8.80746 -2.62616,5.19254 -2.62616,5.19253 -3.74703,5.5 -3.74704,5.5 -6.86453,6.56135 -6.86453,6.56135 -4.82669,3.28946 -4.8267,3.28946 -8.1733,3.79524 -8.17331,3.79524 -8.5,2.13423 -8.5,2.13423 -12.5,0.44256 -12.5,0.44256 z m 32.66508,-34.22657 5.39281,-1.58197 5.36699,-3.04686 5.36699,-3.04687 5.20702,-5.29088 5.20702,-5.29088 3.08061,-5.81879 3.08061,-5.8188 1.59538,-5.4315 1.59538,-5.4315 v -10.637 -10.636997 l -1.61243,-5.431501 -1.61244,-5.431501 -2.99818,-5.94062 -2.99819,-5.94062 -5.66283,-5.662837 -5.66284,-5.662838 -7.65442,-3.681628 -7.65442,-3.681628 -8.56267,-1.145673 -8.56266,-1.145674 -7.68299,1.194447 -7.68298,1.194448 -7.55302,3.632854 -7.55301,3.632854 -5.54099,5.603457 -5.54099,5.603458 -3.20128,6.081455 -3.20127,6.081455 -1.5312,5.878644 -1.53119,5.878643 v 9.395562 9.39555 l 1.57662,6.08437 1.57662,6.08436 2.04895,4.05998 2.04895,4.05998 3.56304,4.89091 3.56304,4.89092 5.83662,4.29668 5.83663,4.29668 5.57145,2.08454 5.57146,2.08455 5.15331,0.92243 5.15331,0.92243 7.60719,-0.45606 7.60718,-0.45606 z m 171.81088,34.57242 -6.58193,-0.76968 -6.41807,-1.73845 -6.41807,-1.73846 -8.34352,-3.83939 -8.34352,-3.8394 -6.15648,-4.40378 -6.15648,-4.40378 -5.66881,-5.95791 -5.66881,-5.95791 -4.00034,-6.1893 -4.00033,-6.18929 -3.00256,-7.22006 -3.00256,-7.22006 -1.70136,-8.41039 -1.70136,-8.41038 0.52225,-13.589617 0.52224,-13.589612 2.12612,-7.328631 2.12612,-7.328631 3.11156,-6.171369 3.11156,-6.171369 3.74597,-5.5 3.74598,-5.5 6.36716,-6.057334 6.36717,-6.057334 4.5,-3.05972 4.5,-3.059721 6,-3.015451 6,-3.015452 8,-2.517802 8,-2.517802 9.89399,-1.241289 9.89399,-1.24129 10.77942,0.654697 10.77943,0.654696 9.33807,2.368795 9.33806,2.368795 6.83486,3.099071 6.83485,3.09907 6.15367,4.424965 6.15366,4.424966 3.96247,4.103822 3.96247,4.103822 -1.96247,1.901161 -1.96247,1.90116 -10.37984,9.4804 -10.37985,9.480399 -6.12015,-4.943112 -6.12016,-4.943113 -6,-2.954641 -6,-2.954642 -7,-1.476194 -7,-1.476195 h -6 -6 l -7,1.476195 -7,1.476194 -6.5,3.181324 -6.5,3.181324 -6.12072,6.103251 -6.12073,6.103251 -2.72242,5.37244 -2.72242,5.37244 -1.43825,4.599427 -1.43824,4.599427 -0.56789,8.5 -0.56789,8.499999 1.59189,7.5 1.59189,7.5 3.14877,6.4099 3.14877,6.4099 6.10862,6.09081 6.10862,6.09081 6.82417,3.34847 6.82418,3.34846 8.67582,1.53463 8.67583,1.53463 9,-1.10067 9,-1.10067 5.89116,-2.02784 5.89115,-2.02784 1.35885,-1.12774 1.35884,-1.12774 V 123.91947 99.541911 h 17.5 17.5 v 34.431909 34.4319 l -2.99688,2.13397 -2.99688,2.13397 -8.83355,4.38937 -8.83355,4.38936 -8.91957,2.59608 -8.91957,2.59609 -9.5,1.44278 -9.5,1.44278 -7.5,-0.12553 -7.5,-0.12553 z m -411.45773,-3.21747 -0.4769,-1.25 0.25828,-82.5 0.25828,-82.499999 h 19.5 19.5 l 0.2046,67.5 0.20459,67.499999 41.79541,0.5 41.7954,0.5 0.2754,15.75 0.27539,15.75 h -61.55678 -61.55678 z"
         id="path306" />
    </g>
  </g>
</svg>
